<svg width="0" height="0" class="hidden">
  <symbol fill="none" xmlns="http://www.w3.org/2000/svg" viewBox="0 0 13 13" id="whatsapp">
    <g clip-path="url(#clip0_1_15973)">
      <path d="M6.49685 0.503787C3.18509 0.50449 0.500956 3.18978 0.501659 6.50153C0.501893 7.64828 0.830971 8.7709 1.44982 9.73633L0.516884 12.1569C0.467202 12.2856 0.531289 12.4303 0.660026 12.48C0.688813 12.4911 0.719381 12.4968 0.75023 12.4967C0.778854 12.4969 0.807267 12.492 0.834181 12.4822L3.33271 11.5902C6.14383 13.341 9.842 12.4815 11.5928 9.67033C13.3436 6.85918 12.484 3.16104 9.67286 1.41026C8.71994 0.81675 7.61952 0.502686 6.49685 0.503787Z" fill="#5D6C7B"></path>
      <path d="M9.35557 7.52445C9.35557 7.52445 8.74344 7.22462 8.36016 7.02475C7.92642 6.80138 7.41672 7.21963 7.17686 7.4575C6.80356 7.3141 6.46261 7.09767 6.17396 6.82087C5.89711 6.53227 5.68068 6.19131 5.53732 5.81796C5.77519 5.57761 6.19244 5.06841 5.97008 4.63467C5.77269 4.2509 5.47038 3.63877 5.47038 3.63877C5.42796 3.55458 5.34178 3.50144 5.2475 3.50134H4.74781C4.02008 3.62703 3.49097 4.262 3.49855 5.00046C3.49855 5.78498 4.43749 7.29211 5.07063 7.92572C5.70377 8.55933 7.21087 9.49779 7.99589 9.49779C8.73435 9.50538 9.36932 8.97624 9.49501 8.24854V7.74884C9.49508 7.65356 9.44102 7.56654 9.35557 7.52445Z" fill="#F7F7F7"></path>
    </g>
    <defs>
      <clipPath id="clip0_1_15973">
        <rect width="12" height="12" fill="white" transform="translate(0.5 0.5)"></rect>
      </clipPath>
    </defs>
  </symbol>
  <symbol fill="none" xmlns="http://www.w3.org/2000/svg" viewBox="0 0 12 13" id="telegram">
    <g clip-path="url(#clip0_1_15976)">
      <path d="M4.70847 8.09058L4.50997 10.8826C4.79397 10.8826 4.91697 10.7606 5.06447 10.6141L6.39597 9.34158L9.15497 11.3621C9.66097 11.6441 10.0175 11.4956 10.154 10.8966L11.965 2.41058L11.9655 2.41008C12.126 1.66208 11.695 1.36958 11.202 1.55308L0.556967 5.62858C-0.169533 5.91058 -0.158533 6.31558 0.433467 6.49908L3.15497 7.34558L9.47647 3.39008C9.77397 3.19308 10.0445 3.30208 9.82197 3.49908L4.70847 8.09058Z" fill="#5D6C7B"></path>
    </g>
    <defs>
      <clipPath id="clip0_1_15976">
        <rect width="12" height="12" fill="white" transform="translate(0 0.5)"></rect>
      </clipPath>
    </defs>
  </symbol>
  <symbol fill="none" xmlns="http://www.w3.org/2000/svg" viewBox="0 0 12 13" id="viber">
    <g clip-path="url(#clip0_1_15970)">
      <path d="M6.40796 7.27975C6.27072 7.41708 6.04815 7.41708 5.91082 7.27975L4.31323 5.68216C4.24731 5.61624 4.21023 5.52679 4.21023 5.43359C4.21023 5.3403 4.24731 5.25095 4.31323 5.18494L4.59723 4.90103L3.76309 4.06689L3.07974 4.75024C2.84976 4.98022 2.84985 5.3544 3.07974 5.58438L6.0086 8.51343C6.11929 8.62411 6.26742 8.685 6.42572 8.685C6.58401 8.685 6.73214 8.62402 6.84283 8.51334L7.52618 7.83008L6.69204 6.99585L6.40796 7.27975Z" fill="#5D6C7B"></path>
      <path d="M11.4957 4.73541C11.4957 3.60831 11.0541 2.54593 10.2519 1.74384C9.4498 0.941742 8.38742 0.5 7.26041 0.5H4.75085C4.75085 0.5 4.75085 0.5 4.75076 0.5C3.62384 0.5 2.56146 0.941742 1.75946 1.74374C0.957367 2.54584 0.515625 3.60831 0.515625 4.73532V6.70792C0.515625 7.58069 0.78186 8.42032 1.28558 9.13599C1.72998 9.76733 2.32764 10.2604 3.02444 10.5732V11.7062C3.02444 12.2921 3.35248 12.4999 3.63336 12.5C3.83405 12.5 4.03482 12.4009 4.23019 12.2057L5.49243 10.9432H7.2605C8.38751 10.9432 9.44989 10.5015 10.252 9.6994C11.0541 8.89731 11.4958 7.83493 11.4958 6.70792L11.4957 4.73541ZM8.27197 8.07864L7.33997 9.01056C7.09644 9.25409 6.77179 9.38803 6.42572 9.38803C6.07965 9.38803 5.755 9.254 5.51147 9.01056L2.58252 6.08151C2.07852 5.57733 2.07852 4.75711 2.58252 4.25302L3.51453 3.32111C3.58044 3.2551 3.6698 3.21811 3.76309 3.21811C3.85629 3.21811 3.94574 3.2551 4.01166 3.32111L5.34302 4.65247C5.40894 4.71838 5.44592 4.80783 5.44592 4.90103C5.44592 4.99423 5.40894 5.08368 5.34293 5.1496L5.05902 5.4335L6.15948 6.53397L6.44348 6.24997C6.58081 6.11273 6.80338 6.11273 6.94061 6.25006L8.27197 7.58142C8.33798 7.64734 8.37497 7.73679 8.37497 7.82999C8.37497 7.92328 8.33798 8.01273 8.27197 8.07864ZM5.73944 3.91299C5.73944 3.7189 5.89682 3.56143 6.091 3.56143C7.30911 3.56143 8.30017 4.5524 8.30017 5.77042C8.30017 5.9646 8.14279 6.12198 7.94861 6.12198C7.75452 6.12198 7.59705 5.9646 7.59705 5.77042C7.59705 4.94012 6.92148 4.26456 6.091 4.26456C5.89682 4.26456 5.73944 4.10718 5.73944 3.91299ZM9.45474 6.12216C9.26056 6.12216 9.10318 5.96469 9.10318 5.7706C9.10327 4.96594 8.78989 4.20953 8.22098 3.64053C7.65198 3.07162 6.89557 2.75824 6.09091 2.75824C5.89682 2.75824 5.73935 2.60086 5.73935 2.40668C5.73935 2.21259 5.89682 2.05511 6.09091 2.05511C7.08334 2.05511 8.01636 2.44165 8.71811 3.1434C9.41995 3.84515 9.8064 4.77817 9.8063 5.7706C9.8063 5.96469 9.64893 6.12216 9.45474 6.12216Z" fill="#5D6C7B"></path>
    </g>
    <defs>
      <clipPath id="clip0_1_15970">
        <rect width="12" height="12" fill="white" transform="translate(0 0.5)"></rect>
      </clipPath>
    </defs>
  </symbol>

  <symbol viewBox="0 0 113 23" fill="none" xmlns="http://www.w3.org/2000/svg" id="logo">
  <path d="M0.22 0.999999V22H5.47V0.999999H0.22ZM12.61 0.999999L4 10.99L12.85 22H19L10.03 10.84L18.55 0.999999H12.61ZM21.0466 0.999999V15.1C21.0466 16.42 21.2566 17.57 21.6766 18.55C22.1166 19.53 22.7166 20.34 23.4766 20.98C24.2566 21.6 25.1566 22.07 26.1766 22.39C27.1966 22.71 28.2966 22.87 29.4766 22.87C30.6566 22.87 31.7566 22.71 32.7766 22.39C33.8166 22.07 34.7166 21.6 35.4766 20.98C36.2566 20.34 36.8566 19.53 37.2766 18.55C37.7166 17.57 37.9366 16.42 37.9366 15.1V0.999999H32.8666V14.74C32.8666 15.8 32.5866 16.66 32.0266 17.32C31.4666 17.98 30.6166 18.31 29.4766 18.31C28.3566 18.31 27.5166 17.98 26.9566 17.32C26.3966 16.66 26.1166 15.8 26.1166 14.74V0.999999H21.0466ZM52.6417 14.41H58.2217C58.0417 14.95 57.7917 15.46 57.4717 15.94C57.1717 16.4 56.8017 16.81 56.3617 17.17C55.9217 17.51 55.3917 17.78 54.7717 17.98C54.1517 18.16 53.4617 18.25 52.7017 18.25C51.4617 18.25 50.3617 17.98 49.4017 17.44C48.4617 16.88 47.7117 16.1 47.1517 15.1C46.6117 14.08 46.3417 12.88 46.3417 11.5C46.3417 10.1 46.6217 8.92 47.1817 7.96C47.7617 6.98 48.5317 6.23 49.4917 5.71C50.4517 5.19 51.5217 4.93 52.7017 4.93C53.9217 4.93 54.9317 5.21 55.7317 5.77C56.5517 6.31 57.2017 7 57.6817 7.84L62.1817 5.5C61.5217 4.52 60.7317 3.66 59.8117 2.92C58.9117 2.16 57.8717 1.57 56.6917 1.15C55.5117 0.729999 54.1817 0.519999 52.7017 0.519999C51.0417 0.519999 49.5017 0.779999 48.0817 1.3C46.6617 1.82 45.4217 2.56 44.3617 3.52C43.3017 4.48 42.4817 5.64 41.9017 7C41.3217 8.34 41.0317 9.84 41.0317 11.5C41.0317 13.16 41.3117 14.68 41.8717 16.06C42.4517 17.42 43.2517 18.6 44.2717 19.6C45.2917 20.58 46.5017 21.34 47.9017 21.88C49.3017 22.4 50.8417 22.66 52.5217 22.66C54.3017 22.66 55.8817 22.35 57.2617 21.73C58.6417 21.09 59.7917 20.21 60.7117 19.09C61.6317 17.97 62.3117 16.68 62.7517 15.22C63.1917 13.76 63.3617 12.19 63.2617 10.51H52.6417V14.41ZM70.8353 11.5C70.8353 10.26 71.0753 9.17 71.5553 8.23C72.0553 7.27 72.7453 6.52 73.6253 5.98C74.5253 5.44 75.5753 5.17 76.7753 5.17C77.9953 5.17 79.0453 5.44 79.9253 5.98C80.8053 6.52 81.4853 7.27 81.9653 8.23C82.4453 9.17 82.6853 10.26 82.6853 11.5C82.6853 12.74 82.4353 13.84 81.9353 14.8C81.4553 15.74 80.7653 16.48 79.8653 17.02C78.9853 17.56 77.9553 17.83 76.7753 17.83C75.5753 17.83 74.5253 17.56 73.6253 17.02C72.7453 16.48 72.0553 15.74 71.5553 14.8C71.0753 13.84 70.8353 12.74 70.8353 11.5ZM65.4653 11.5C65.4653 13.12 65.7353 14.61 66.2753 15.97C66.8353 17.33 67.6153 18.51 68.6153 19.51C69.6353 20.51 70.8353 21.29 72.2153 21.85C73.5953 22.39 75.1153 22.66 76.7753 22.66C78.4153 22.66 79.9253 22.39 81.3053 21.85C82.6853 21.29 83.8753 20.51 84.8753 19.51C85.8953 18.51 86.6753 17.33 87.2153 15.97C87.7753 14.61 88.0553 13.12 88.0553 11.5C88.0553 9.88 87.7753 8.4 87.2153 7.06C86.6553 5.72 85.8653 4.56 84.8453 3.58C83.8253 2.6 82.6253 1.85 81.2453 1.33C79.8853 0.789999 78.3953 0.519999 76.7753 0.519999C75.1753 0.519999 73.6853 0.789999 72.3053 1.33C70.9253 1.85 69.7253 2.6 68.7053 3.58C67.6853 4.56 66.8853 5.72 66.3053 7.06C65.7453 8.4 65.4653 9.88 65.4653 11.5ZM95.474 11.5C95.474 10.26 95.714 9.17 96.194 8.23C96.694 7.27 97.384 6.52 98.264 5.98C99.164 5.44 100.214 5.17 101.414 5.17C102.634 5.17 103.684 5.44 104.564 5.98C105.444 6.52 106.124 7.27 106.604 8.23C107.084 9.17 107.324 10.26 107.324 11.5C107.324 12.74 107.074 13.84 106.574 14.8C106.094 15.74 105.404 16.48 104.504 17.02C103.624 17.56 102.594 17.83 101.414 17.83C100.214 17.83 99.164 17.56 98.264 17.02C97.384 16.48 96.694 15.74 96.194 14.8C95.714 13.84 95.474 12.74 95.474 11.5ZM90.104 11.5C90.104 13.12 90.374 14.61 90.914 15.97C91.474 17.33 92.254 18.51 93.254 19.51C94.274 20.51 95.474 21.29 96.854 21.85C98.234 22.39 99.754 22.66 101.414 22.66C103.054 22.66 104.564 22.39 105.944 21.85C107.324 21.29 108.514 20.51 109.514 19.51C110.534 18.51 111.314 17.33 111.854 15.97C112.414 14.61 112.694 13.12 112.694 11.5C112.694 9.88 112.414 8.4 111.854 7.06C111.294 5.72 110.504 4.56 109.484 3.58C108.464 2.6 107.264 1.85 105.884 1.33C104.524 0.789999 103.034 0.519999 101.414 0.519999C99.814 0.519999 98.324 0.789999 96.944 1.33C95.564 1.85 94.364 2.6 93.344 3.58C92.324 4.56 91.524 5.72 90.944 7.06C90.384 8.4 90.104 9.88 90.104 11.5Z" fill="#282739"/>
  </symbol>

</svg>